<svg id="svg" version="1.1" width="400" height="400" xmlns="http://www.w3.org/2000/svg" xmlns:xlink="http://www.w3.org/1999/xlink" style="display: block;"><g id="svgg"><path id="path0" d="M139.400 53.616 C 85.162 53.784,69.403 53.943,68.000 54.336 C 57.297 57.335,46.689 66.897,42.637 77.200 C 42.247 78.190,41.781 79.180,41.600 79.400 C 40.965 80.172,38.825 89.053,38.418 92.608 C 37.884 97.273,37.867 219.023,38.400 224.502 C 39.676 237.620,45.703 248.980,55.800 257.300 C 57.039 258.321,61.701 260.851,64.716 262.139 C 68.872 263.914,70.374 263.971,113.300 263.986 L 154.000 264.000 154.000 241.000 L 154.000 218.000 123.991 218.000 L 93.982 218.000 91.491 216.864 C 87.031 214.830,83.657 210.397,82.558 205.127 C 81.632 200.686,81.935 113.011,82.885 110.320 C 84.393 106.053,87.776 102.115,91.462 100.336 L 93.400 99.400 164.000 99.200 L 234.600 99.000 236.850 97.895 C 245.347 93.722,248.117 87.404,247.589 73.400 C 247.291 65.489,246.155 62.472,241.875 58.214 C 237.223 53.587,235.307 53.156,220.000 53.298 C 213.950 53.354,177.680 53.497,139.400 53.616 M196.000 241.000 L 196.000 264.000 214.500 263.995 C 239.287 263.989,241.107 263.371,245.900 253.329 L 247.393 250.200 247.534 242.258 C 247.726 231.360,246.729 227.964,241.904 223.080 C 237.042 218.158,236.187 218.005,213.500 218.002 L 196.000 218.000 196.000 241.000 " stroke="none" fill="#000000" fill-rule="evenodd"></path><path id="path1" d="M107.100 53.500 C 125.855 53.557,156.545 53.557,175.300 53.500 C 194.055 53.442,178.710 53.395,141.200 53.395 C 103.690 53.395,88.345 53.442,107.100 53.500 M63.800 55.578 C 62.920 55.995,62.313 56.350,62.451 56.368 C 62.840 56.418,65.600 55.214,65.600 54.995 C 65.600 54.727,65.599 54.727,63.800 55.578 M240.800 56.925 C 240.800 56.994,241.385 57.579,242.100 58.225 L 243.400 59.400 242.225 58.100 C 241.130 56.888,240.800 56.616,240.800 56.925 M247.753 74.600 C 247.753 77.240,247.818 78.268,247.897 76.884 C 247.975 75.501,247.974 73.341,247.895 72.084 C 247.816 70.828,247.752 71.960,247.753 74.600 M39.429 85.429 C 39.281 86.015,39.238 86.572,39.332 86.666 C 39.427 86.760,39.624 86.358,39.771 85.771 C 39.919 85.185,39.962 84.628,39.868 84.534 C 39.773 84.440,39.576 84.842,39.429 85.429 M93.400 99.600 C 92.381 100.038,93.432 100.038,94.800 99.600 C 95.604 99.343,95.643 99.277,95.000 99.268 C 94.560 99.262,93.840 99.411,93.400 99.600 M195.795 241.200 L 195.800 264.200 214.200 264.206 L 232.600 264.212 214.303 264.102 L 196.006 263.992 195.898 241.096 L 195.790 218.200 195.795 241.200 M154.109 220.000 C 154.109 220.990,154.187 221.395,154.282 220.900 C 154.378 220.405,154.378 219.595,154.282 219.100 C 154.187 218.605,154.109 219.010,154.109 220.000 M240.800 221.725 C 240.800 221.794,241.385 222.379,242.100 223.025 L 243.400 224.200 242.225 222.900 C 241.130 221.688,240.800 221.416,240.800 221.725 M154.101 225.000 C 154.105 225.880,154.187 226.193,154.283 225.695 C 154.379 225.198,154.375 224.478,154.275 224.095 C 154.175 223.713,154.096 224.120,154.101 225.000 M154.093 229.600 C 154.093 230.370,154.175 230.685,154.276 230.300 C 154.376 229.915,154.376 229.285,154.276 228.900 C 154.175 228.515,154.093 228.830,154.093 229.600 M39.256 231.200 C 39.256 231.530,39.411 232.160,39.600 232.600 C 39.817 233.104,39.944 233.178,39.944 232.800 C 39.944 232.470,39.789 231.840,39.600 231.400 C 39.383 230.896,39.256 230.822,39.256 231.200 M154.093 234.400 C 154.093 235.170,154.175 235.485,154.276 235.100 C 154.376 234.715,154.376 234.085,154.276 233.700 C 154.175 233.315,154.093 233.630,154.093 234.400 M247.762 241.000 C 247.762 244.520,247.824 245.906,247.898 244.081 C 247.972 242.256,247.972 239.376,247.897 237.681 C 247.822 235.986,247.761 237.480,247.762 241.000 M154.124 239.800 C 154.126 241.120,154.201 241.612,154.290 240.893 C 154.379 240.174,154.377 239.094,154.286 238.493 C 154.195 237.892,154.122 238.480,154.124 239.800 M154.093 243.600 C 154.093 244.370,154.175 244.685,154.276 244.300 C 154.376 243.915,154.376 243.285,154.276 242.900 C 154.175 242.515,154.093 242.830,154.093 243.600 M154.093 250.000 C 154.093 250.770,154.175 251.085,154.276 250.700 C 154.376 250.315,154.376 249.685,154.276 249.300 C 154.175 248.915,154.093 249.230,154.093 250.000 M49.200 251.325 C 49.200 251.394,49.785 251.979,50.500 252.625 L 51.800 253.800 50.625 252.500 C 49.530 251.288,49.200 251.016,49.200 251.325 M154.093 252.800 C 154.093 253.570,154.175 253.885,154.276 253.500 C 154.376 253.115,154.376 252.485,154.276 252.100 C 154.175 251.715,154.093 252.030,154.093 252.800 M154.093 259.200 C 154.093 259.970,154.175 260.285,154.276 259.900 C 154.376 259.515,154.376 258.885,154.276 258.500 C 154.175 258.115,154.093 258.430,154.093 259.200 M154.032 263.098 L 154.000 263.996 113.700 264.100 L 73.400 264.204 113.713 264.302 C 156.414 264.406,154.972 264.462,154.269 262.713 C 154.156 262.431,154.049 262.604,154.032 263.098 " stroke="none" fill="#4b4b4b" fill-rule="evenodd"></path><path id="path2" d="M181.530 53.100 C 191.062 53.160,206.542 53.160,215.930 53.100 C 225.319 53.040,217.520 52.991,198.600 52.991 C 179.680 52.991,171.999 53.040,181.530 53.100 M50.975 64.100 L 49.800 65.400 51.100 64.225 C 52.312 63.130,52.584 62.800,52.275 62.800 C 52.206 62.800,51.621 63.385,50.975 64.100 M248.151 76.000 C 248.151 78.530,248.216 79.565,248.296 78.300 C 248.375 77.035,248.375 74.965,248.296 73.700 C 248.216 72.435,248.151 73.470,248.151 76.000 M37.795 158.800 C 37.795 193.010,37.842 207.005,37.900 189.900 C 37.958 172.795,37.958 144.805,37.900 127.700 C 37.842 110.595,37.795 124.590,37.795 158.800 M129.900 99.500 C 148.875 99.557,179.925 99.557,198.900 99.500 C 217.875 99.443,202.350 99.395,164.400 99.395 C 126.450 99.395,110.925 99.443,129.900 99.500 M105.200 217.893 C 132.777 218.169,154.307 218.172,154.138 217.900 C 154.036 217.735,140.598 217.642,124.276 217.693 C 107.954 217.744,99.370 217.834,105.200 217.893 M195.467 217.867 C 195.097 218.237,195.129 263.909,195.500 264.138 C 195.665 264.240,195.752 253.903,195.694 241.166 L 195.587 218.008 214.094 217.900 L 232.600 217.792 214.167 217.696 C 204.028 217.643,195.613 217.720,195.467 217.867 M248.153 241.400 C 248.153 244.040,248.218 245.068,248.297 243.684 C 248.375 242.301,248.374 240.141,248.295 238.884 C 248.216 237.628,248.152 238.760,248.153 241.400 " stroke="none" fill="#6e6e6e" fill-rule="evenodd"></path><path id="path3" d="M0.000 200.000 L 0.000 400.000 200.000 400.000 L 400.000 400.000 400.000 200.000 L 400.000 0.000 200.000 0.000 L 0.000 0.000 0.000 200.000 M237.923 54.562 C 245.557 58.640,248.622 65.372,248.310 77.380 C 248.025 88.368,244.584 94.908,237.287 98.328 L 235.000 99.400 164.400 99.600 L 93.800 99.800 91.524 100.918 C 87.448 102.919,84.398 107.003,83.027 112.296 C 81.948 116.461,82.093 201.701,83.186 205.646 C 84.549 210.564,86.939 213.873,90.716 216.071 L 93.000 217.400 123.464 217.510 L 153.929 217.619 154.117 196.310 C 154.271 178.756,154.420 174.401,154.962 171.600 C 158.585 152.864,170.984 139.432,186.710 137.203 C 188.888 136.894,213.404 136.800,269.800 136.883 L 349.800 137.000 351.952 138.133 C 358.693 141.683,361.606 147.918,361.594 158.773 C 361.582 169.462,358.372 175.808,351.301 179.122 L 349.000 180.200 278.400 180.400 L 207.800 180.600 205.543 181.743 C 197.832 185.651,195.618 191.385,195.607 207.479 L 195.600 217.558 215.300 217.679 L 235.000 217.800 237.200 218.947 C 245.345 223.195,248.169 228.811,248.188 240.800 C 248.207 252.781,245.276 259.029,237.800 262.943 L 235.400 264.200 215.600 264.400 L 195.800 264.600 195.693 274.292 C 195.516 290.299,197.871 296.341,205.800 300.225 L 208.200 301.400 257.800 301.400 L 307.400 301.400 309.746 300.301 C 321.282 294.897,323.755 277.284,314.291 267.932 C 310.082 263.774,310.453 263.838,289.000 263.586 C 269.046 263.351,269.215 263.370,265.766 260.995 C 260.231 257.182,258.000 251.669,258.000 241.800 C 258.000 231.047,261.220 224.412,267.976 221.243 L 270.200 220.200 299.510 220.092 C 327.823 219.988,328.932 220.012,332.110 220.798 C 346.333 224.311,356.442 235.927,360.831 253.800 C 361.525 256.622,361.835 302.254,361.199 307.757 C 359.001 326.765,345.801 342.335,329.800 344.794 C 327.860 345.092,305.194 345.189,256.000 345.112 L 185.000 345.000 181.961 343.937 C 169.591 339.608,161.162 330.635,156.656 317.000 C 154.440 310.297,154.313 308.730,154.116 285.709 L 153.934 264.418 111.467 264.309 L 69.000 264.200 65.493 262.923 C 53.322 258.491,43.045 246.914,39.641 233.800 C 37.489 225.510,37.600 229.596,37.600 158.759 L 37.600 93.577 38.610 88.589 C 41.987 71.913,51.561 59.761,65.216 54.822 C 70.428 52.936,69.668 52.952,154.800 52.977 L 235.000 53.000 237.923 54.562 " stroke="none" fill="#ffffff" fill-rule="evenodd"></path><path id="path4" d="M114.330 53.100 C 123.641 53.160,138.761 53.160,147.930 53.100 C 157.098 53.040,149.480 52.991,131.000 52.991 C 112.520 52.991,105.018 53.040,114.330 53.100 M67.400 54.000 C 66.381 54.438,67.432 54.438,68.800 54.000 C 69.604 53.743,69.643 53.677,69.000 53.668 C 68.560 53.662,67.840 53.811,67.400 54.000 M241.800 57.600 C 242.659 58.480,243.452 59.200,243.562 59.200 C 243.672 59.200,243.059 58.480,242.200 57.600 C 241.341 56.720,240.548 56.000,240.438 56.000 C 240.328 56.000,240.941 56.720,241.800 57.600 M247.268 66.800 C 247.288 67.839,247.918 69.546,247.932 68.600 C 247.938 68.160,247.789 67.440,247.600 67.000 C 247.389 66.510,247.261 66.432,247.268 66.800 M37.720 94.800 C 37.720 96.010,37.795 96.505,37.887 95.900 C 37.978 95.295,37.978 94.305,37.887 93.700 C 37.795 93.095,37.720 93.590,37.720 94.800 M87.178 103.900 L 85.800 105.400 87.300 104.022 C 88.696 102.738,88.984 102.400,88.678 102.400 C 88.612 102.400,87.937 103.075,87.178 103.900 M185.400 137.399 C 170.043 140.312,158.249 153.669,154.955 171.880 C 153.855 177.961,153.862 304.071,154.962 310.200 C 157.953 326.856,167.602 338.912,181.961 343.937 L 185.000 345.000 256.000 345.112 C 305.194 345.189,327.860 345.092,329.800 344.794 C 345.801 342.335,359.001 326.765,361.199 307.757 C 361.835 302.254,361.525 256.622,360.831 253.800 C 356.442 235.927,346.333 224.311,332.110 220.798 C 328.932 220.012,327.823 219.988,299.510 220.092 L 270.200 220.200 267.976 221.243 C 253.633 227.970,254.513 257.788,269.204 262.885 C 270.179 263.223,276.149 263.435,289.000 263.586 C 310.453 263.838,310.082 263.774,314.291 267.932 C 323.755 277.284,321.282 294.897,309.746 300.301 L 307.400 301.400 257.800 301.400 L 208.200 301.400 205.800 300.225 C 197.916 296.363,195.586 290.448,195.627 274.400 C 195.640 269.010,195.521 264.258,195.361 263.841 C 194.768 262.298,195.551 197.656,196.199 194.600 C 197.378 189.035,201.008 184.042,205.543 181.743 L 207.800 180.600 278.400 180.400 L 349.000 180.200 351.301 179.122 C 358.372 175.808,361.582 169.462,361.594 158.773 C 361.606 147.918,358.693 141.683,351.952 138.133 L 349.800 137.000 269.000 136.934 C 203.301 136.881,187.677 136.968,185.400 137.399 M37.720 222.800 C 37.720 224.010,37.795 224.505,37.887 223.900 C 37.978 223.295,37.978 222.305,37.887 221.700 C 37.795 221.095,37.720 221.590,37.720 222.800 M242.000 222.600 C 242.746 223.370,243.447 224.000,243.557 224.000 C 243.667 224.000,243.146 223.370,242.400 222.600 C 241.654 221.830,240.953 221.200,240.843 221.200 C 240.733 221.200,241.254 221.830,242.000 222.600 M247.268 231.600 C 247.288 232.639,247.918 234.346,247.932 233.400 C 247.938 232.960,247.789 232.240,247.600 231.800 C 247.389 231.310,247.261 231.232,247.268 231.600 M52.000 254.525 C 52.000 254.594,52.585 255.179,53.300 255.825 L 54.600 257.000 53.425 255.700 C 52.330 254.488,52.000 254.216,52.000 254.525 " stroke="none" fill="#8bc348" fill-rule="evenodd"></path></g></svg>